<?xml version="1.0" encoding="utf-8"?>
<!-- Generator: Adobe Illustrator 16.0.0, SVG Export Plug-In . SVG Version: 6.00 Build 0)  -->
<!DOCTYPE svg PUBLIC "-//W3C//DTD SVG 1.1//EN" "http://www.w3.org/Graphics/SVG/1.1/DTD/svg11.dtd">
<svg version="1.1" xmlns="http://www.w3.org/2000/svg" xmlns:xlink="http://www.w3.org/1999/xlink" x="0px" y="0px" width="400px"
	 height="400px" viewBox="0 0 400 400" enable-background="new 0 0 400 400" xml:space="preserve">
<g id="rectangle_and_guides" display="none">
	<g display="inline">
		<rect x="11" y="-200" fill="#B3B0A1" width="75" height="2000"/>
		<rect x="116" y="-200" fill="#B3B0A1" width="76" height="2000"/>
		<rect x="222" y="-200" fill="#B3B0A1" width="75" height="2000"/>
		<rect x="327" y="-200" fill="#B3B0A1" width="75" height="2000"/>
	</g>
	<line display="inline" fill="none" stroke="#00A651" x1="326.5" y1="-300" x2="326.5" y2="1900"/>
	<line display="inline" fill="none" stroke="#00A651" x1="296.5" y1="-300" x2="296.5" y2="1900"/>
	<line display="inline" fill="none" stroke="#00A651" x1="221.5" y1="-300" x2="221.5" y2="1900"/>
	<line display="inline" fill="none" stroke="#00A651" x1="191.5" y1="-300" x2="191.5" y2="1900"/>
	<line display="inline" fill="none" stroke="#00A651" x1="116.5" y1="-300" x2="116.5" y2="1900"/>
	<line display="inline" fill="none" stroke="#00A651" x1="86.5" y1="-300" x2="86.5" y2="1900"/>
	<line display="inline" fill="none" stroke="#00A651" x1="10.5" y1="-300" x2="10.5" y2="1900"/>
</g>
<g id="copied_guides" display="none">
</g>
<g id="backround_form_action">
</g>
<g id="Layer_4">
	<rect x="-40" y="-25" fill="#2196F3" width="480" height="434"/>
	<path fill="none" stroke="#FFFFFF" stroke-width="34.4077" stroke-miterlimit="10" d="M278.628,129.579
		c0,44.669-35.065,80.888-78.318,80.888c-43.252,0-78.31-36.219-78.31-80.888c0-44.678,35.058-80.896,78.31-80.896
		C243.563,48.683,278.628,84.901,278.628,129.579z"/>
	<path fill="none" stroke="#FFFFFF" stroke-width="34.4101" stroke-miterlimit="10" d="M26.87,356.131
		c0,0,170.989-314.787,352.36,11.663"/>
</g>
</svg>
